<mxfile host="app.diagrams.net" modified="2021-02-09T19:54:44.862Z" agent="5.0 (Macintosh; Intel Mac OS X 10_15_7) AppleWebKit/537.36 (KHTML, like Gecko) Chrome/88.0.4324.146 Safari/537.36" etag="OCczZVCza2wTvx3CkRLF" version="14.3.0" type="github">
  <diagram id="b7SdA0R0TSMEdQlhVxkR" name="Page-1">
    <mxGraphModel dx="1112" dy="642" grid="1" gridSize="10" guides="1" tooltips="1" connect="1" arrows="1" fold="1" page="1" pageScale="1" pageWidth="850" pageHeight="1100" math="0" shadow="0">
      <root>
        <mxCell id="0" />
        <mxCell id="1" parent="0" />
      </root>
    </mxGraphModel>
  </diagram>
</mxfile>
